<svg xmlns="http://www.w3.org/2000/svg" viewBox="0 0 500 500"><g id="freepik--Shadow--inject-6"><ellipse id="freepik--path--inject-6" cx="250" cy="416.24" rx="193.89" ry="11.32" style="fill:#f5f5f5"></ellipse></g><g id="freepik--garbage-pile-2--inject-6"><path d="M77.14,324.48s-.37.07-1,.14" style="fill:none;stroke:#263238;stroke-linecap:round;stroke-linejoin:round;stroke-width:0.5px"></path><path d="M74.19,324.79c-3.49.17-9-.27-10.07-4.48-1.64-6.27,15.59-16.28,13-11.65s-13.42,10.45-16.48,3.42c-2.75-6.31,5.09-13.94,11.17-14.91" style="fill:none;stroke:#263238;stroke-linecap:round;stroke-linejoin:round;stroke-width:0.5px;stroke-dasharray:1.9673800468444824,1.9673800468444824"></path><path d="M72.82,297.07a6.45,6.45,0,0,1,1,0" style="fill:none;stroke:#263238;stroke-linecap:round;stroke-linejoin:round;stroke-width:0.5px"></path><path d="M96.61,308.36c-4.39-8.18-4-10.22,4.54-14.27s2.15-4.82-2.52-13.91,8.12-14.83,6.61-20.57-5-6.58-5-6.58,7.67,1.32,6.6,7.94-8,8.72-6.45,13.29,12.48,5,13.17,11.63-4.54,5.77-3,9.2,13.45,3.58,14.11,11.06S96.61,308.36,96.61,308.36Z" style="fill:#263238"></path><path d="M96.61,308.36c-4.39-8.18-4-10.22,4.54-14.27s2.15-4.82-2.52-13.91,8.12-14.83,6.61-20.57-5-6.58-5-6.58,7.67,1.32,6.6,7.94-8,8.72-6.45,13.29,12.48,5,13.17,11.63-4.54,5.77-3,9.2,13.45,3.58,14.11,11.06S96.61,308.36,96.61,308.36Z" style="fill:#fff;opacity:0.9"></path><path d="M127.62,291.67c9.67-3.58,10.73-10.81,3.13-12.31s-10.43,1.54-4.64,3.14,15.07-6.13,4.64-11.62" style="fill:none;stroke:#263238;stroke-linecap:round;stroke-linejoin:round;stroke-width:0.5px;stroke-dasharray:2"></path><path d="M194.89,376.48a14.5,14.5,0,0,1-1.74-2.51c-.59-1.57.07-3.31-.71-4.87a6.91,6.91,0,0,0-1-1.37l-2.58-3a2.39,2.39,0,0,1-.5-.76c-.21-.64.15-1.36-.05-2a3,3,0,0,0-1.17-1.28,8.36,8.36,0,0,1-2.94-4.48,11.09,11.09,0,0,0-.56-2.07c-.59-1.25-1.83-2.15-2.52-3.5-1-1.91-1.83-3.89-2.66-5.86a4.32,4.32,0,0,0-.92-1.51,7.06,7.06,0,0,0-2-1,5.62,5.62,0,0,1-3.25-4.43,8.52,8.52,0,0,0-.17-1.52c-.5-1.75-2.4-2.36-3.39-3.7-.87-1.18-.9-3-2.27-3.81-.37-.23-.82-.38-1-.74-.3-.51,0-1.19-.23-1.73s-1-.8-1.25-1.34a2.86,2.86,0,0,1-.18-1.24c-.12-2.2-2.72-2.6-3.35-4.57-.27-.84.53-1.73.13-2.74-.64-1.64-2.72-2.22-4.12-3.05a9.09,9.09,0,0,1-3.73-4.22,5.75,5.75,0,0,0-1.25-2.26,7.12,7.12,0,0,0-2.31-1c-2.4-.87-3.87-5.24-5.86-5.44a2.06,2.06,0,0,1-.9-.15,1.92,1.92,0,0,1-.5-.59c-1.11-1.5-3.43-.61-4.94-.51-2.2.13-2.75-.63-4.79-1.21-1.16-.32-2.55.42-3.54-.25-.46-.3-.68-.83-1-1.24-1.58-1.87-2.06.7-3.74,1.05s-3.43,0-5.06.28a9.63,9.63,0,0,1-3.85.19c-1.24-.28-2-1.44-3.47-1.16-3.09.6-2.3,4.41-6.27,3.15l-.92-.29a4,4,0,0,1-1.33.74,5.26,5.26,0,0,1-1.86.24,19.7,19.7,0,0,1-2.79,1.67c-.94.39-1.36,1.54-2.25,2-.4.23-.86.33-1.28.52-2.92,1.3-3,5.42-4.47,7.79-2.14,3.54-6,2.69-9.62,4.08a1.17,1.17,0,0,0-.53.33c-.48.58.19,1.81-.55,2a1.46,1.46,0,0,1-.51,0c-1.89-.2-2.48,2.14-3.77,3-1.59,1-3.62.85-5.33,2a16.32,16.32,0,0,0-2.81,2.7,5.57,5.57,0,0,0-1,1.4c-.87,2-.17,3.08-1.49,5.15-1.21,1.9-2.46,3.77-3.66,5.68a16.93,16.93,0,0,0-2.82,6.19,10.47,10.47,0,0,1-.72,3.58c-1.56,2.81-6.3,3.33-5.42,7.44.36,1.67-.88,3.63-1.5,5.06-.27.62-.35,1.3-.69,2-.47.92-1.27.93-1.61,2.38a7,7,0,0,1-1.3,2.14c-1.69,2.44-2,5.85-3.15,8.67Z" style="fill:#263238"></path><path d="M194.89,376.48a14.5,14.5,0,0,1-1.74-2.51c-.59-1.57.07-3.31-.71-4.87a6.91,6.91,0,0,0-1-1.37l-2.58-3a2.39,2.39,0,0,1-.5-.76c-.21-.64.15-1.36-.05-2a3,3,0,0,0-1.17-1.28,8.36,8.36,0,0,1-2.94-4.48,11.09,11.09,0,0,0-.56-2.07c-.59-1.25-1.83-2.15-2.52-3.5-1-1.91-1.83-3.89-2.66-5.86a4.32,4.32,0,0,0-.92-1.51,7.06,7.06,0,0,0-2-1,5.62,5.62,0,0,1-3.25-4.43,8.52,8.52,0,0,0-.17-1.52c-.5-1.75-2.4-2.36-3.39-3.7-.87-1.18-.9-3-2.27-3.81-.37-.23-.82-.38-1-.74-.3-.51,0-1.19-.23-1.73s-1-.8-1.25-1.34a2.86,2.86,0,0,1-.18-1.24c-.12-2.2-2.72-2.6-3.35-4.57-.27-.84.53-1.73.13-2.74-.64-1.64-2.72-2.22-4.12-3.05a9.09,9.09,0,0,1-3.73-4.22,5.75,5.75,0,0,0-1.25-2.26,7.12,7.12,0,0,0-2.31-1c-2.4-.87-3.87-5.24-5.86-5.44a2.06,2.06,0,0,1-.9-.15,1.92,1.92,0,0,1-.5-.59c-1.11-1.5-3.43-.61-4.94-.51-2.2.13-2.75-.63-4.79-1.21-1.16-.32-2.55.42-3.54-.25-.46-.3-.68-.83-1-1.24-1.58-1.87-2.06.7-3.74,1.05s-3.43,0-5.06.28a9.63,9.63,0,0,1-3.85.19c-1.24-.28-2-1.44-3.47-1.16-3.09.6-2.3,4.41-6.27,3.15l-.92-.29a4,4,0,0,1-1.33.74,5.26,5.26,0,0,1-1.86.24,19.7,19.7,0,0,1-2.79,1.67c-.94.39-1.36,1.54-2.25,2-.4.23-.86.33-1.28.52-2.92,1.3-3,5.42-4.47,7.79-2.14,3.54-6,2.69-9.62,4.08a1.17,1.17,0,0,0-.53.33c-.48.58.19,1.81-.55,2a1.46,1.46,0,0,1-.51,0c-1.89-.2-2.48,2.14-3.77,3-1.59,1-3.62.85-5.33,2a16.32,16.32,0,0,0-2.81,2.7,5.57,5.57,0,0,0-1,1.4c-.87,2-.17,3.08-1.49,5.15-1.21,1.9-2.46,3.77-3.66,5.68a16.93,16.93,0,0,0-2.82,6.19,10.47,10.47,0,0,1-.72,3.58c-1.56,2.81-6.3,3.33-5.42,7.44.36,1.67-.88,3.63-1.5,5.06-.27.62-.35,1.3-.69,2-.47.92-1.27.93-1.61,2.38a7,7,0,0,1-1.3,2.14c-1.69,2.44-2,5.85-3.15,8.67Z" style="fill:#fff;opacity:0.4"></path><path d="M185.84,376.48a5.19,5.19,0,0,0-.49-.55c-1.57-1.62-5-4.08-5.18-6.55-.1-1.23,1.22-2.27,1.07-3.5a2.66,2.66,0,0,0-1.79-1.87,9.22,9.22,0,0,1-2.46-1.2,1.36,1.36,0,0,1-.35-.44,1.64,1.64,0,0,1-.08-.79l.09-1.69a2.09,2.09,0,0,0-.57-1.93c-.25-.18-.57-.24-.83-.41-2.23-1.49-1.06-3.28-1-5.14.11-2.21-2.07-2.43-2.65-4.27-.11-.34-.11-.69-.23-1-.29-.84-1.16-1.32-1.93-1.81a7.08,7.08,0,0,1-2.72-2.87,14.58,14.58,0,0,0-1-2.4,1.78,1.78,0,0,0-2.29-.69c-.57.39-.74,1.24-1.39,1.47-1.12.4-1.87-1.4-3.06-1.52-1-.1-1.92.58-2.91.57-1.38,0-2.59-.65-3.91-.82a39.58,39.58,0,0,0-5.55.09,4.58,4.58,0,0,0-1.81.27c-1,.44-1.55,1.54-2.54,2-.75.33-1.75.32-2.18,1-.2.32-.21.72-.39,1.05-.38.7-1.3.8-1.77,1.41a8.21,8.21,0,0,0-.74,1.64c-1-1.91,1.3-4.63,2.18-6.26a19,19,0,0,1,1.5-2.63c.31-.39,1.47-1.24,1.57-1.64s.15-.71.47-.76a1.51,1.51,0,0,1,.46.07c.44.05.78-.38,1-.78s.34-.86.75-1,.83,0,1.24,0a1.15,1.15,0,0,0,.94-1.44,17.84,17.84,0,0,0,3.5-.28,1.26,1.26,0,0,0,.57-.2,1.23,1.23,0,0,0,.31-.4l.74-1.31c4.57,2.26.86-3.6-1.49-4.42a11.6,11.6,0,0,0-1.57-.18,13,13,0,0,1-1.84-.73,1.51,1.51,0,0,0-1.78.39c-1,0-1.4-1.18-1.67-2.1a15.35,15.35,0,0,0-7.32-9.06,3.37,3.37,0,0,0-2.88-.47c-.94.42-1.4,1.41-2.41,1.72a11,11,0,0,1-3.38,0c-.26,0-.57,0-.71.22s0,.46,0,.69c0,.76-1.08,1.09-1.35,1.81-.21.55.12,1.2-.14,1.73a1,1,0,0,1-1.29.4c.08.78.1,1.64-.75,1.9-.47-.78-.07-1.58.07-2.45a10.06,10.06,0,0,1,1-3.12c.44-.81.36-1.69.83-2.56a8.78,8.78,0,0,1,2.14-2.77,1.68,1.68,0,0,1,1.61-.26c.25.1.47.29.74.28a1.35,1.35,0,0,0,.56-.25,2.14,2.14,0,0,1,2,0,1.92,1.92,0,0,1,1.77-1.55,7.81,7.81,0,0,1,3.7.72,10.83,10.83,0,0,0-4.07-1.9c-1.21-.3-2.52-.26-3.71-.57-1-.25-1.74-.94-2.8-1s-2.31,1-2,2a32.81,32.81,0,0,0-4.09-3.23l-.66,1.64c-1.87-.85-3.91.9-4.88,2.67-.25.45-.55,1-1.08,1.05s-1-.4-1.49-.68a3.84,3.84,0,0,0-3.54.2,24.51,24.51,0,0,1-3.26,1.68c-3.94,1.35-4.3,4.51-5.24,7.84a4.15,4.15,0,0,1,2.31.28,1.64,1.64,0,0,0,.48.18c.53.08,1-.38,1.38-.71s1.18-.46,1.38,0-.23.95.08,1.25.58.11.83.26.3,1,.76,1.07c.3.06.52-.24.77-.4a1.35,1.35,0,0,1,1.54.3,7.16,7.16,0,0,1,.94,1.36,5.1,5.1,0,0,0,2.46,1.92,5,5,0,0,1,.92.39c1.17.8,1.89,3.23,2.38,4.51-.51-.82-6.78-3.47-7.64-3.9a1.12,1.12,0,0,1-.38-.26c-.44-.52.22-1.54-.38-1.88a.78.78,0,0,0-.4-.09c-1.07,0-2.3.33-3.13-.33-.27-.2-.45-.48-.72-.68-.94-.67-2.27,0-3.43-.1a9.32,9.32,0,0,1-1.66-.51c-1.93-.59-3.61.56-5.48.74-.62.06-1.32.48-1.25,1.08a2,2,0,0,0-1.77-.65c-.79.25-1,1.36-1.8,1.61-.62.2-1.25-.23-1.82-.55s-1.42-.5-1.79,0-.07,1.56-.72,1.72c-.19.05-.39,0-.58,0a1,1,0,0,0-.53.46c-.68,1-2.19,2.77-1.9,4.08.43,1.89,2.3.86,3.67,1.46a3.58,3.58,0,0,1,1.49,1.42,7.86,7.86,0,0,1,.85,1.81c.13.4.26.85.65,1,.18.07.38.07.56.13.66.22,2,1.82,2.53,2.32a7.22,7.22,0,0,1,2.2,3.78,4.06,4.06,0,0,0-3.94-3c-1.66,0-5.12.21-6.32,1.36-.46.44-.91,1-1.55,1a2.79,2.79,0,0,1-.7-.19c-1.41-.41-2.82.51-4,1.38a5,5,0,0,0-2.3,3.74c-2.3-.2-3.75,1.15-5.44,2.53a3.43,3.43,0,0,0-.8.86l.21-1.31a2,2,0,0,1,.24-.76,2.54,2.54,0,0,1,.72-.62,19.56,19.56,0,0,0,1.51-1.51,2.38,2.38,0,0,1,1.93-.77,6.82,6.82,0,0,1,1.11-2.72.93.93,0,0,1,.53-.43c.24-.05.5.08.75.06.58-.06.69-.83,1.05-1.29a3.64,3.64,0,0,1,1.46-.8c.52-.24,1-.77.81-1.28,1.93,1,4-1.57,6.15-.79-1.84-.88-1.86-2.87-4.35-3a3.55,3.55,0,0,1-1-.1.67.67,0,0,1-.49-.74c-1.69-.15-4-.56-5.2.6a1.54,1.54,0,0,1-.93.33c-2.48.32-3.69.45-5.28,2.45-2,2.47-5,5-5.36,8.27a2,2,0,0,1-.18.77c-.34.63-1.3.77-1.57,1.42s.13,1.1.39,1.62a5.2,5.2,0,0,1,.54,2.36,3.62,3.62,0,0,0-1.53-1.22c-1.21-.38-2.42.51-3.37,1.33-1.86,1.63-2.82,5.28-2.28,7.72.09.4.19.89-.13,1.15s-.56.19-.71.42a1,1,0,0,0-.06.55,1.58,1.58,0,0,1-1.43,1.56,1.09,1.09,0,0,0-.54.11.76.76,0,0,0-.27.57c-.12.76-.23,1.52-.35,2.28a1.09,1.09,0,0,0,.22,1c1.1-.32,1-1.38,1.85-2,.46-.34,1.19-.11,1.65-.59a1.91,1.91,0,0,0,.39-1.19,1,1,0,0,1,1.28-.12c.41.21.72.57,1.13.79a3.37,3.37,0,0,0,3.27-.46,1.26,1.26,0,0,1,.84-.27c.25,0,.42.24.64.36.9.48,1.95.26,2.91.78a20.75,20.75,0,0,1,3.11,2.42c-3.1-2.57-8.08-.76-10.58,1.68a1,1,0,0,1-.46.3,3.37,3.37,0,0,1-.7-.06c-.72,0-1.15,1-1.87.92-.24,0-.49-.19-.71-.08s-.19.22-.28.33a1.36,1.36,0,0,1-.71.35l-1.9.51A5.22,5.22,0,0,1,50,373.11c-.24.18-.52.37-.58.65a10.83,10.83,0,0,1-1.11,2.72Z" style="fill:#fff;opacity:0.1"></path><path d="M86.7,349c-.07-.61-.13-1.21-.2-1.82a.58.58,0,0,1,0-.39c.15-.24.52-.19.77-.31s.45-.62.77-.85,1-.05,1.44.19.85.49.88.93-.4.78-.82.94a5.18,5.18,0,0,0-1.25.46c-.37.25-.58.81-.27,1.12l-1.41-.07" style="fill:#fff;opacity:0.2"></path><path d="M65,362.16a1.42,1.42,0,0,1,1.08-1,4.54,4.54,0,0,1,1.56,0,3.07,3.07,0,0,1,1.12.27,1,1,0,0,1,.55.91,1,1,0,0,1-.85.75,3,3,0,0,1-1.22-.13,1.58,1.58,0,0,1-1.09-.61C65.91,362,65.23,362.44,65,362.16Z" style="fill:#fff;opacity:0.2"></path><path d="M90.63,357.71a8.44,8.44,0,0,1,.91-1.38,9.48,9.48,0,0,1,2.33-1.78,4.64,4.64,0,0,1,2.69-.94c1.48.13,2.43,1.58,2.92,2.94-1-.05-1.63-1.1-2-2-1.14-.17-2.16.67-2.94,1.49-.6.63-1.16,1.27-1.7,1.94a5.79,5.79,0,0,0-1.12,1.83,2.31,2.31,0,0,0,.22,2.05,2.15,2.15,0,0,0,2.59.57,2.65,2.65,0,0,0,1.42-2.29,1.35,1.35,0,0,1,.08-.6c.25-.49,1-.42,1.5-.28a8.21,8.21,0,0,1-.73,1.79,5.33,5.33,0,0,1-.67,1,8,8,0,0,1-1.31,1.07c-1.46,1-4.51,4.38-5.76,2.31S89.59,359.53,90.63,357.71Z" style="fill:#fff;opacity:0.2"></path><path d="M97.16,312.91a3.38,3.38,0,0,0,4,.46,1.44,1.44,0,0,0,.72-1,.7.7,0,0,0-.74-.78c.25.33-.05.84-.46.94a1.68,1.68,0,0,1-1.2-.31c-4.6-2.85,2.37-1.65.83-3.52C98.29,306.2,94.84,310.55,97.16,312.91Z" style="fill:#fff;opacity:0.2"></path><path d="M85.57,323a9.26,9.26,0,0,1-2-2,5.19,5.19,0,0,0-.63,1.68,1.75,1.75,0,0,0,.61,1.61c.24.17.65.23.81,0s.06-.28.14-.4.36-.21.57-.28.43-.27.32-.46" style="fill:#fff;opacity:0.2"></path><path d="M112.37,371.29l3-2.48s1.59.36,1.74,1.06a24.4,24.4,0,0,1,0,3.46C115.44,374.32,112.37,371.29,112.37,371.29Z" style="fill:#fff;opacity:0.2"></path><path d="M117.55,302.35s.81-1.83,1.79-1.6,1.26,0,2.15.73l.89.74s.57,3.36-.87,2.8A20.65,20.65,0,0,1,117.55,302.35Z" style="fill:#fff;opacity:0.2"></path><path d="M155.8,364.45l3.54-2.35,2.11,1.8s.7.67-.67,2.18l-1.38,1.5-1.91.31Z" style="fill:#fff;opacity:0.2"></path><polygon points="103.74 342.74 106.97 339.77 115.92 344.86 115.92 349.36 103.74 342.74" style="fill:#fff;opacity:0.2"></polygon><polygon points="108.44 302.52 102.9 294.99 103.74 293.57 110.13 301.48 108.44 302.52" style="fill:#263238"></polygon><path d="M60.66,350.86s-6.41-2.28-9.66-.56-1.92,9-2.67,9S46,363,46,363v1.73s1.62-1.54,3.33-3.3-.17-4.89,1.37-7.15,9-.23,9-.23Z" style="fill:#263238"></path><polygon points="131.43 303.16 133.17 294.49 135.43 295.15 135.43 297.66 137.56 296.32 138.24 297.16 138.24 303.16 131.43 303.16" style="fill:#263238"></polygon><path d="M83.77,317.75c-7.39.5,1.8-9.78,1.8-9.78s-1.21-2.93-2.81-2.89.7-1.45,2.81-1.11,3.31-1.93,3.82-.05-1.76,3-1.76,3,.77.5,4.86.25S96.48,316.9,83.77,317.75Z" style="fill:#263238"></path><path d="M70.14,330.52a4.6,4.6,0,0,0-2.86.35,3.09,3.09,0,0,0-1.69,2.2,9.55,9.55,0,0,0,0,1.69c0,.76-.07,1.52,0,2.27a2.3,2.3,0,0,0,1.2,1.84,1.73,1.73,0,0,0,.81-1.91c-.1-.36-.31-.67-.39-1-.19-1,.64-1.81,1.41-2.45.36-.31.87-.63,1.27-.38a1,1,0,0,1,.34.47A6.4,6.4,0,0,1,70.8,336c1.68.61,1.81-.58,1.84-2.14C72.67,332.11,72.11,330.86,70.14,330.52Z" style="fill:#263238"></path><path d="M73.14,368.87a1.18,1.18,0,0,1,.25-.5c.37-.35,1-.11,1.43.15l3,1.73a4.35,4.35,0,0,0,1.57.66c.26,0,.53,0,.79.08a1.72,1.72,0,0,1,1.25,2.22c-2.28-.17-5,.17-7.17-.33S72.66,370.56,73.14,368.87Z" style="fill:#263238"></path><path d="M129.61,351.23c.53-.65,1.09-1.29,1.68-1.89.28-.28.55-.55.84-.82a.46.46,0,0,1,.22-.14.48.48,0,0,1,.31.13c1.19.95,3.38,2.41,1.52,3.75a3,3,0,0,1-2.15.46A10.68,10.68,0,0,1,129.61,351.23Z" style="fill:#263238"></path><path d="M148.59,322.65l-.28-3.67,4.08-1.56,2.09,2.62c-.22,2.14-3.39,3.16-3.39,3.16Z" style="fill:#263238"></path><path d="M121.32,323.2l3.22-3.44s3.19.52,3,1.72.54.2-.23,1.2-1.34,1.86-2.09,1.8a5.36,5.36,0,0,1-1.76-.66Z" style="fill:#263238"></path><path d="M135,363c3.71-.34,4.25,2.41,4.25,2.41l-2.38,1.8s1.07,4.26,4.28,5.13c6.28,1.7,5.12,4.13,3.7,4.13l-18.39-.08s-2.77-.34-1.14-2.7c2.83-4.11,9.53-6.87,9.53-6.87s-3-2.91-1.72-3.7S135,363,135,363Z" style="fill:#263238"></path><path d="M66.13,352.65s-2.13-1.07-2-2.5,1.71.43,2.3-1.28c.45-1.31.83-2.43,1.47-1.72s1.14,1.6,2.2,1.89-1.78,3.08-1.78,3.08,4.37,1.67,5.7,5.21-4.56,3.43-5.93,3.89c-1.89.63-4.26,3.93-6.56,1.53S66.13,352.65,66.13,352.65Z" style="fill:#263238"></path><path d="M112.37,344.62l2.49-9.16s5.28.2,5.63.7a23.49,23.49,0,0,1,.79,6.45,40.36,40.36,0,0,1-1.94,4.79Z" style="fill:#263238"></path><polygon points="133.17 329.8 145.09 333.47 145.09 336.87 133.17 333.33 133.17 329.8" style="fill:#263238"></polygon><polygon points="108.44 302.52 102.9 294.99 103.74 293.57 110.13 301.48 108.44 302.52" style="fill:#fff;opacity:0.1"></polygon><path d="M60.66,350.86s-6.41-2.28-9.66-.56-1.92,9-2.67,9S46,363,46,363v1.73s1.62-1.54,3.33-3.3-.17-4.89,1.37-7.15,9-.23,9-.23Z" style="fill:#fff;opacity:0.1"></path><polygon points="131.43 303.16 133.17 294.49 135.43 295.15 135.43 297.66 137.56 296.32 138.24 297.16 138.24 303.16 131.43 303.16" style="fill:#fff;opacity:0.1"></polygon><path d="M112.37,344.62l2.49-9.16s5.28.2,5.63.7a23.49,23.49,0,0,1,.79,6.45,40.36,40.36,0,0,1-1.94,4.79Z" style="fill:#fff;opacity:0.1"></path><path d="M70.14,330.52a4.6,4.6,0,0,0-2.86.35,3.09,3.09,0,0,0-1.69,2.2,9.55,9.55,0,0,0,0,1.69c0,.76-.07,1.52,0,2.27a2.3,2.3,0,0,0,1.2,1.84,1.73,1.73,0,0,0,.81-1.91c-.1-.36-.31-.67-.39-1-.19-1,.64-1.81,1.41-2.45.36-.31.87-.63,1.27-.38a1,1,0,0,1,.34.47A6.4,6.4,0,0,1,70.8,336c1.68.61,1.81-.58,1.84-2.14C72.67,332.11,72.11,330.86,70.14,330.52Z" style="fill:#fff;opacity:0.1"></path><path d="M148.59,322.65l-.28-3.67,4.08-1.56,2.09,2.62c-.22,2.14-3.39,3.16-3.39,3.16Z" style="fill:#fff;opacity:0.1"></path><path d="M66.13,352.65s-2.13-1.07-2-2.5,1.71.43,2.3-1.28c.45-1.31.83-2.43,1.47-1.72s1.14,1.6,2.2,1.89-1.78,3.08-1.78,3.08,4.37,1.67,5.7,5.21-4.56,3.43-5.93,3.89c-1.89.63-4.26,3.93-6.56,1.53S66.13,352.65,66.13,352.65Z" style="fill:#fff;opacity:0.1"></path><polygon points="103.74 327.53 106.51 325.35 108.44 327.53 106.97 329.8 103.74 327.53" style="fill:#fff;opacity:0.2"></polygon><path d="M99.29,356.07c12.32-2.54,7.77-13.39-.89-10s10.49,9.05,11-6.14-18.68-13-18.68-13" style="fill:none;stroke:#263238;stroke-linecap:round;stroke-linejoin:round;stroke-width:0.5px;stroke-dasharray:2"></path></g><g id="freepik--Truck--inject-6"><path d="M292.37,363.42H282.1c-2.69,0-4.88,7.75-4.88,17.31s2.19,17.3,4.88,17.3h10.27c2.7,0,4.88-7.75,4.88-17.3S295.07,363.42,292.37,363.42Z"></path><path d="M293.14,364.65c-2.26,0-4.08,7.2-4.08,16.08s1.82,16.07,4.08,16.07,4.08-7.19,4.08-16.07S295.39,364.65,293.14,364.65Z" style="fill:#fff;opacity:0.2"></path><path d="M293.14,373.23c-1.05,0-1.9,3.36-1.9,7.5s.85,7.49,1.9,7.49,1.9-3.35,1.9-7.49S294.19,373.23,293.14,373.23Z" style="opacity:0.6000000000000001"></path><path d="M274.78,363.42H264.51c-2.7,0-4.89,7.75-4.89,17.31s2.19,17.3,4.89,17.3h10.27c2.69,0,4.88-7.75,4.88-17.3S277.47,363.42,274.78,363.42Z"></path><path d="M275.54,364.65c-2.25,0-4.08,7.2-4.08,16.08s1.83,16.07,4.08,16.07,4.08-7.19,4.08-16.07S277.79,364.65,275.54,364.65Z" style="fill:#fff;opacity:0.2"></path><path d="M275.54,373.23c-1.05,0-1.9,3.36-1.9,7.5s.85,7.49,1.9,7.49,1.9-3.35,1.9-7.49S276.59,373.23,275.54,373.23Z" style="opacity:0.6000000000000001"></path><rect x="420.77" y="356.52" width="26.7" height="23.47"></rect><path d="M347.31,363.42H337c-2.7,0-4.89,7.75-4.89,17.31S334.34,398,337,398h10.27c2.69,0,4.88-7.75,4.88-17.3S350,363.42,347.31,363.42Z"></path><path d="M348.07,364.65c-2.25,0-4.08,7.2-4.08,16.08s1.83,16.07,4.08,16.07,4.08-7.19,4.08-16.07S350.32,364.65,348.07,364.65Z" style="fill:#fff;opacity:0.2"></path><path d="M348.07,373.23c-1.05,0-1.9,3.36-1.9,7.5s.85,7.49,1.9,7.49,1.9-3.35,1.9-7.49S349.12,373.23,348.07,373.23Z" style="opacity:0.6000000000000001"></path><path d="M440.27,363.42H430c-2.69,0-4.88,7.75-4.88,17.31S427.31,398,430,398h10.27c2.7,0,4.88-7.75,4.88-17.3S443,363.42,440.27,363.42Z"></path><path d="M441,364.65c-2.25,0-4.08,7.2-4.08,16.08s1.83,16.07,4.08,16.07,4.08-7.19,4.08-16.07S443.29,364.65,441,364.65Z" style="fill:#fff;opacity:0.2"></path><path d="M441.39,372c-1.22,0-2.2,3.89-2.2,8.69s1,8.69,2.2,8.69,2.2-3.89,2.2-8.69S442.61,372,441.39,372Z" style="fill:#fff;opacity:0.6000000000000001"></path><path d="M441,373.23c-1.05,0-1.9,3.36-1.9,7.5s.85,7.49,1.9,7.49,1.9-3.35,1.9-7.49S442.09,373.23,441,373.23Z" style="fill:#fff;opacity:0.6000000000000001"></path><path d="M440.14,377c-.53,0-.95,1.68-.95,3.75s.42,3.74.95,3.74.95-1.67.95-3.74S440.66,377,440.14,377Z" style="fill:#263238"></path><ellipse cx="440.6" cy="380.73" rx="0.48" ry="1.87" style="fill:#fff;opacity:0.2"></ellipse><path d="M440.66,299.25a13.47,13.47,0,0,0-13.18-10.67h-94V380.9h99.3v-.06c0-11.56,3-20.94,6.75-20.94s6.76,9.38,6.76,20.94v.06h1.36V332.27Z" style="fill:#29FF86"></path><path d="M423.42,288.58h-89.9V380.9h89.9a3.38,3.38,0,0,0,3.39-3.38V292A3.39,3.39,0,0,0,423.42,288.58Z" style="opacity:0.2"></path><rect x="324.76" y="294.04" width="98.97" height="86.62" rx="2.89" style="fill:#263238"></rect><rect x="446.16" y="366.97" width="4.46" height="14.37" rx="1.35" style="fill:#29FF86"></rect><rect x="446.16" y="366.97" width="4.46" height="14.37" rx="1.35" style="fill:#fff;opacity:0.6000000000000001"></rect><path d="M431.91,301.09h4.72a3.06,3.06,0,0,1,3,2.46l5.52,27.32v5H440.6l-3.64-7.5h-5Z" style="fill:#263238"></path><polyline points="429.9 296.19 429.9 328.34 429.9 357.28 434.12 363.42" style="fill:none;stroke:#263238;stroke-linecap:round;stroke-linejoin:round;stroke-width:0.5px;opacity:0.2"></polyline><path d="M435.27,334.09H433a1.06,1.06,0,0,1-1.06-1.06h0a1.06,1.06,0,0,1,1.06-1h2.3a1,1,0,0,1,1.05,1h0A1.05,1.05,0,0,1,435.27,334.09Z" style="fill:#fff;opacity:0.4"></path><path d="M447.69,365.81h0a1.54,1.54,0,0,1-1.53-1.53V348.4a1.54,1.54,0,0,1,1.53-1.53h0Z" style="fill:#fff;opacity:0.7000000000000001"></path><path d="M447.39,353.11V348.3a.47.47,0,0,0-.46-.46.46.46,0,0,0-.46.46v4.81Z" style="fill:#fff"></path><path d="M446.47,353.89V359a.45.45,0,0,0,.46.46.46.46,0,0,0,.46-.46v-5.13Z" style="fill:#fff"></path><path d="M433.3,304.09l5.89,18.08L437,307.71l6.63,26.38v-4.28l-4.73-23.65a2.58,2.58,0,0,0-2.52-2.07Z" style="fill:#fff;opacity:0.4"></path><path d="M385.34,363.42H375.07c-2.7,0-4.88,7.75-4.88,17.31s2.18,17.3,4.88,17.3h10.27c2.69,0,4.88-7.75,4.88-17.3S388,363.42,385.34,363.42Z"></path><path d="M386.1,364.65c-2.25,0-4.08,7.2-4.08,16.08s1.83,16.07,4.08,16.07,4.08-7.19,4.08-16.07S388.36,364.65,386.1,364.65Z" style="fill:#fff;opacity:0.2"></path><ellipse cx="386.46" cy="380.73" rx="2.2" ry="8.69" style="fill:#fff;opacity:0.6000000000000001"></ellipse><path d="M386.1,373.23c-1.05,0-1.9,3.36-1.9,7.5s.85,7.49,1.9,7.49,1.9-3.35,1.9-7.49S387.15,373.23,386.1,373.23Z" style="fill:#fff;opacity:0.6000000000000001"></path><path d="M385.2,377c-.52,0-.95,1.68-.95,3.75s.43,3.74.95,3.74.95-1.67.95-3.74S385.73,377,385.2,377Z" style="fill:#263238"></path><path d="M385.67,378.85c-.26,0-.48.84-.48,1.88s.22,1.87.48,1.87.47-.84.47-1.87S385.93,378.85,385.67,378.85Z" style="fill:#fff;opacity:0.2"></path><path d="M367.74,363.42H357.47c-2.69,0-4.88,7.75-4.88,17.31s2.19,17.3,4.88,17.3h10.27c2.7,0,4.88-7.75,4.88-17.3S370.44,363.42,367.74,363.42Z"></path><path d="M368.51,364.65c-2.26,0-4.08,7.2-4.08,16.08s1.82,16.07,4.08,16.07,4.08-7.19,4.08-16.07S370.76,364.65,368.51,364.65Z" style="fill:#fff;opacity:0.2"></path><path d="M368.86,372c-1.22,0-2.2,3.89-2.2,8.69s1,8.69,2.2,8.69,2.2-3.89,2.2-8.69S370.08,372,368.86,372Z" style="fill:#fff;opacity:0.6000000000000001"></path><path d="M368.51,373.23c-1.05,0-1.9,3.36-1.9,7.5s.85,7.49,1.9,7.49,1.9-3.35,1.9-7.49S369.56,373.23,368.51,373.23Z" style="fill:#fff;opacity:0.6000000000000001"></path><ellipse cx="367.61" cy="380.73" rx="0.95" ry="3.75" style="fill:#263238"></ellipse><ellipse cx="368.07" cy="380.73" rx="0.48" ry="1.87" style="fill:#fff;opacity:0.2"></ellipse><polygon points="327.08 368.36 297.31 368.36 295.5 359.9 251.51 359.9 251.51 315.7 259.96 271.42 327.08 271.42 327.08 368.36" style="fill:#29FF86"></polygon><polygon points="327.08 368.36 297.31 368.36 295.5 359.9 251.51 359.9 251.51 315.7 259.96 271.42 327.08 271.42 327.08 368.36" style="fill:#fff;opacity:0.5"></polygon><polygon points="265.04 271.43 256.58 315.69 256.58 359.9 251.52 359.9 251.52 315.69 259.96 271.43 265.04 271.43" style="fill:#fff;opacity:0.2"></polygon><polygon points="327.08 368.36 297.31 368.36 295.5 359.9 256.58 359.9 256.58 315.7 265.04 271.42 327.08 271.42 327.08 368.36" style="fill:#fff;opacity:0.5"></polygon><polygon points="359.23 372.16 255.45 372.16 255.45 358.32 362.61 358.32 359.23 372.16" style="fill:#263238"></polygon><polygon points="359.23 372.16 255.45 372.16 255.45 358.32 362.61 358.32 359.23 372.16" style="fill:#fff;opacity:0.30000000000000004"></polygon><rect x="325.5" y="271.42" width="49.19" height="86.9" style="fill:#29FF86"></rect><rect x="325.5" y="271.42" width="49.19" height="86.9" style="fill:#fff;opacity:0.4"></rect><path d="M328.1,296.34a1.64,1.64,0,0,1-.93-.09c-.31-.42.07-1.08.58-1.19a1.77,1.77,0,0,1,1.45.48.7.7,0,0,1,.24.3.5.5,0,0,1-.42.56c-.25.06-.88.11-.76-.12,4.51-9.08-1.18-7.83-11.36-11.85s-10.41-.11-4.33-9-12.76-11.47-13.49-18.82,8.67-11.14,8.67-11.14-20,7.8-11.66,17.82,10.73,17,1.13,21.16-15.79,10.58-6.85,20.93" style="fill:#263238"></path><path d="M328.1,296.34a1.64,1.64,0,0,1-.93-.09c-.31-.42.07-1.08.58-1.19a1.77,1.77,0,0,1,1.45.48.7.7,0,0,1,.24.3.5.5,0,0,1-.42.56c-.25.06-.88.11-.76-.12,4.51-9.08-1.18-7.83-11.36-11.85s-10.41-.11-4.33-9-12.76-11.47-13.49-18.82,8.67-11.14,8.67-11.14-20,7.8-11.66,17.82,10.73,17,1.13,21.16-15.79,10.58-6.85,20.93" style="fill:#fff;opacity:0.9"></path><path d="M260.63,357.18a3.39,3.39,0,0,1-.44-.82c-.65-1.65-.05-4.85-.07-6.64a3.64,3.64,0,0,1,.65-2.6c.42-.43,1.08-.7,1.24-1.28.31-1.1-1.43-1.87-1.34-3a2.32,2.32,0,0,1,.55-1.08,12.7,12.7,0,0,0,2.44-6.89,10,10,0,0,1,.43-3.67c.39-.89,1.13-1.59,1.51-2.48.92-2.13-.3-4.88,1-6.78a2.88,2.88,0,0,1,1-.89c1.79-1,4.25,0,5.87-1.17a5,5,0,0,0,1.24-1.59q2.36-4,4.7-8c.79-1.35,1.81-2.84,3.37-3a4.21,4.21,0,0,0,1.59-.16,2.3,2.3,0,0,0,.92-1.15c1.24-2.53,2.48-5.07,3.73-7.6A3.69,3.69,0,0,1,290,297c.84-.66,2-.48,3.11-.36a18.3,18.3,0,0,0,6.91-.52,1.25,1.25,0,0,0,1.71.34c.58-.31,1-.86,1.53-1.22,1.51-1,3.33-.47,4.95-1,1.41-.46,2.1-1.48,3.35-2.18,2.17-1.22,6.2-3.14,8.75-2.83,3.79.47,2.45,1.81,7.8,2.48s3.12-2.5,10.91-2.48,10.24-2.05,13.14-.68,2.47,0,7.14,2.94,5,2.14,7.37,7.79,7.41,10.41,8,15.56.69,6.05,1.66,15.41,3.61,12,2.65,17.09.45,6.55.21,7.85a6.66,6.66,0,0,1-1.1,2.42H263.85C262.12,357.64,261.26,358,260.63,357.18Z" style="fill:#263238"></path><path d="M260.63,357.18a3.39,3.39,0,0,1-.44-.82c-.65-1.65-.05-4.85-.07-6.64a3.64,3.64,0,0,1,.65-2.6c.42-.43,1.08-.7,1.24-1.28.31-1.1-1.43-1.87-1.34-3a2.32,2.32,0,0,1,.55-1.08,12.7,12.7,0,0,0,2.44-6.89,10,10,0,0,1,.43-3.67c.39-.89,1.13-1.59,1.51-2.48.92-2.13-.3-4.88,1-6.78a2.88,2.88,0,0,1,1-.89c1.79-1,4.25,0,5.87-1.17a5,5,0,0,0,1.24-1.59q2.36-4,4.7-8c.79-1.35,1.81-2.84,3.37-3a4.21,4.21,0,0,0,1.59-.16,2.3,2.3,0,0,0,.92-1.15c1.24-2.53,2.48-5.07,3.73-7.6A3.69,3.69,0,0,1,290,297c.84-.66,2-.48,3.11-.36a18.3,18.3,0,0,0,6.91-.52,1.25,1.25,0,0,0,1.71.34c.58-.31,1-.86,1.53-1.22,1.51-1,3.33-.47,4.95-1,1.41-.46,2.1-1.48,3.35-2.18,2.17-1.22,6.2-3.14,8.75-2.83,3.79.47,2.45,1.81,7.8,2.48s3.12-2.5,10.91-2.48,10.24-2.05,13.14-.68,2.47,0,7.14,2.94,5,2.14,7.37,7.79,7.41,10.41,8,15.56.69,6.05,1.66,15.41,3.61,12,2.65,17.09.45,6.55.21,7.85a6.66,6.66,0,0,1-1.1,2.42H263.85C262.12,357.64,261.26,358,260.63,357.18Z" style="fill:#fff;opacity:0.4"></path><path d="M270.09,349.93c.21-1.94,1.21-3.46,4.05-3.68.89-.07,1.88.19,2.65-.28,1.09-.67,1.12-2.47,2.29-3,1.48-.67,3.13,1.35,4.66.8.75-.27,1.15-1,1.61-1.68a6.93,6.93,0,0,1,10.42-.47c.69.81,1.23,1.81,2.19,2.25a15.22,15.22,0,0,0,2.36.51c.77.22,1.55.94,1.33,1.71,1.24-.71,1.5-2.44,1.14-3.83s-1.17-2.61-1.6-4a6.11,6.11,0,0,0-.72-1.88c-.79-1.08-2.39-1.27-3.24-2.3a8.79,8.79,0,0,0-1-1.38,3,3,0,0,0-1.92-.44c-2.41,0-5.1.12-6.81,1.82.31-3.53,4.19-5.42,7.49-6.69s7.13-3.4,7.14-6.93a4.37,4.37,0,0,1,4.21.45l1.59-3.29a2.5,2.5,0,0,1,.69-1c.73-.54,1.76-.15,2.67-.23,1.56-.14,2.62-1.63,4.07-2.23a5,5,0,0,1,4.51.66,15.12,15.12,0,0,1,3.34,3.34,4.78,4.78,0,0,0-7.1,1.17c-.71-.79-2,.14-2.38,1.14s-.45,2.26-1.37,2.8c-.58.35-1.43.35-1.73.95a2.25,2.25,0,0,0,.08,1.42c.26,1.28-.28,2.58-.42,3.88s.37,2.92,1.66,3.14a7,7,0,0,1,4.09-7.22c-.79-.57,0-1.89.89-2.21s2-.19,2.8-.78c.4-.29.7-.75,1.17-.88.83-.22,1.63.67,2.46.48.55-.12.88-.67,1.35-1,1.37-.9,3.2.49,4.8.15,1-.22,1.75-1.1,2.69-1.55a3.51,3.51,0,0,1,4,.74q4.68-.46,9.36-.8a11.26,11.26,0,0,0,5.85,4.85c2.26-2,3.29-6,.95-7.88-.67-.53-1.51-.81-2.18-1.34a1.89,1.89,0,0,1-.77-2.23l-6.2.28a2.89,2.89,0,0,1-2.57-.75c-.41-.57-.36-1.38-.78-1.95-.67-.92-2.08-.71-3.18-.4l-5.51,1.55a4.06,4.06,0,0,1,3.48-5.14,4.09,4.09,0,0,1,0-4.73,10,10,0,0,1,3.91-3.14,40.11,40.11,0,0,1,6.57-2.73,2.79,2.79,0,0,1,1.42-.18c.7.16,1.18.81,1.83,1.13,1.47.75,3.22.09,4.75.88,1.29.67,1.92,2,2.95,2.88,2.42,2.16,5.79,2.53,8.27,4.82a29.92,29.92,0,0,1,5.85,8.29,16.87,16.87,0,0,1,2,5.26c.84,5.38-3.14,10.77-1.86,16.06.29,1.21.86,2.35,1.24,3.54a24.83,24.83,0,0,1,.92,5.22l1.29,12.27a4.14,4.14,0,0,1-.47,3.09,4.22,4.22,0,0,1-2.67,1.18L352,363.74c-3.52.62-7,1.24-10.6,1.58-4.08.4-8.19.44-12.29.44q-26.4,0-52.75-2a7,7,0,0,1-2.57-.54c-1.85-.93-2.45-3.24-2.85-5.27C271,355.92,269.81,352.54,270.09,349.93Z" style="fill:#fff;opacity:0.1"></path><path d="M298.22,318.73c-.51-.71-1.16-1.5-2-1.47a.42.42,0,0,1-.27,0c-.12-.07-.13-.23-.18-.36-.18-.43-.78-.47-1.23-.34-.23.07-.47.16-.7.22l-1-.86a1.34,1.34,0,0,0,0-.28,1.16,1.16,0,0,0-.92-1,2,2,0,0,0-.64-.06l-.35-.3a2,2,0,0,1-.48.32l.09.06a3.26,3.26,0,0,1-2,0,1.87,1.87,0,0,0-.92-.31c-.34,0-.6.32-.91.48-.95.51-2.16-.23-3.19.11s-1.57,1.78-2.67,2.15c-.48.16-1.07.11-1.41.48a2.21,2.21,0,0,0-.35,1.22A2.79,2.79,0,0,1,276,321a2,2,0,0,1-.74,2,4.44,4.44,0,0,0-.87.62,2.07,2.07,0,0,0-.35.88A81.24,81.24,0,0,0,272.13,337c0-.27,8.48-1.26,9.26-1.29a2,2,0,0,0,.87-.18c.71-.4.65-1.4.72-2.21s.87-1.77,1.52-1.29a3.23,3.23,0,0,1-.16-3.32,9.62,9.62,0,0,1,2.21-2.68l2.53-2.39a3.65,3.65,0,0,1,1.4-1c.86-.26,1.82.13,2.67-.18,1.59-.58,1.9-3.3,3.6-3.35l-.43-.36A2.76,2.76,0,0,1,298.22,318.73Zm-5.35-2.14a.43.43,0,0,1-.09-.21l.52.4-.15,0A.57.57,0,0,1,292.87,316.59Z" style="fill:#fff;opacity:0.1"></path><path d="M307,313.63c.62-.32.8-1.16,1.4-1.51.8-.48,2,.1,2.66-.6.25-.27.31-.68.56-.95a1.55,1.55,0,0,1,.8-.39,17.48,17.48,0,0,1,8.71-.1,4.83,4.83,0,0,0-1-2.89,2.88,2.88,0,0,0-2.78-1c-.3.07-.63.2-.9.05s-.32-.6-.44-.93a1.67,1.67,0,0,0-1.46-1,4.9,4.9,0,0,0-1.81.32,8.15,8.15,0,0,1,7.3-6.25,4.47,4.47,0,0,0-5.41-2.63,7.58,7.58,0,0,1-1.3.42,13.82,13.82,0,0,0-1.58.1c-.51.14-1,.74-.67,1.18a6.48,6.48,0,0,0-5.41-.31,2.46,2.46,0,0,0-1.21.86c-.21.31-.3.7-.49,1-.56,1-1.83,1.2-2.83,1.73a4.7,4.7,0,0,0-2.45,3.93,1.91,1.91,0,0,0,1.26-1.06c.13-.31.22-.7.53-.81s.58.07.86.17a6.54,6.54,0,0,0,2.38.07,4.36,4.36,0,0,1,3.26,1.5,2.43,2.43,0,0,0-3.67,2.49,2.89,2.89,0,0,0-3.18,3.71,1.88,1.88,0,0,1,.18,1c0,.23-.2.43-.25.67-.29,1.31,1.85,3.32,3,2.59.49-.31.64-1,1.23-1.22C305.18,313.38,306.15,314.06,307,313.63Z" style="fill:#fff;opacity:0.1"></path><polygon points="323.75 305.36 322.53 302.7 323.75 301.68 326.09 302.7 323.75 305.36" style="fill:#fff;opacity:0.2"></polygon><path d="M289.33,311.78a1.09,1.09,0,0,1-.43-1.62.81.81,0,0,1,.45-.29c.41-.08.78.28,1,.64a2.25,2.25,0,0,0,.8,1l-1.82,0" style="fill:#fff;opacity:0.2"></path><path d="M342.78,316.62a1.35,1.35,0,0,1,1.56-1.29c.24.05.46.17.7.24a6.05,6.05,0,0,1,.73.2,1.64,1.64,0,0,1,.86,1.12,4.15,4.15,0,0,1,0,1.45,3.61,3.61,0,0,0-2.32-.58c-.39.09-.93.23-1.08-.14a1.34,1.34,0,0,1,0-.35,1,1,0,0,0-.64-.83" style="fill:#fff;opacity:0.2"></path><path d="M314.82,337.06a.69.69,0,0,1-.85-.77c.08-.36.44-.58.57-.93a3.35,3.35,0,0,0,.11-.55,1.22,1.22,0,0,1,1.81-.81,1.71,1.71,0,0,1,.4,1.64,1.2,1.2,0,0,1-.25.63c-.3.34-1,.49-.88.94l-.89,0" style="fill:#fff;opacity:0.2"></path><path d="M267.09,342a4.1,4.1,0,0,1-.31,2.37c1.41.14,1.9.35,2.48-1a4.87,4.87,0,0,0,.59-2.25C269.45,339.11,267.08,340.22,267.09,342Z" style="fill:#fff;opacity:0.2"></path><path d="M283.79,323.3l-.68.05a1.89,1.89,0,0,1,.51.12A.29.29,0,0,0,283.79,323.3Z" style="fill:#fff;opacity:0.2"></path><path d="M284.56,324.11a2.26,2.26,0,0,0-.94-.64c-.09,0-.2.06-.29.11a.65.65,0,0,0-.3.66,1.85,1.85,0,0,0,.26.71c.19-.2.51-.15.79-.14s.63-.12.62-.4A.52.52,0,0,0,284.56,324.11Z" style="fill:#fff;opacity:0.2"></path><path d="M292.7,348.13a1.85,1.85,0,0,0-1.75-.57.86.86,0,0,0-.49.27.41.41,0,0,0,0,.52l1.21,0-.49.24.38.35c.31.3.76.62,1.13.41S293,348.49,292.7,348.13Z" style="fill:#fff;opacity:0.2"></path><path d="M267.31,352.57l-.64-.88a.34.34,0,0,0-.16-.13c-.11,0-.2.06-.27.15l-.93,1.06a1.53,1.53,0,0,0-.38.6.53.53,0,0,0,.23.62c.1.05.22.05.32.09s.37.39.6.53a.81.81,0,0,0,1.07-.44,2.26,2.26,0,0,0,.05-1.29" style="fill:#fff;opacity:0.2"></path><path d="M325.06,350c-.67-.19-1.46-.5-1.56-1.18a1.19,1.19,0,0,1,.82-1.21,2.67,2.67,0,0,1,1.56,0,2.3,2.3,0,0,1,1.2.58,1,1,0,0,1,.1,1.23,1.37,1.37,0,0,1-.48.31,7.88,7.88,0,0,1-2.34.58" style="fill:#fff;opacity:0.2"></path><path d="M334.24,326.63a1,1,0,0,1-1.22-.8,1.38,1.38,0,0,1,.74-1.37,1.09,1.09,0,0,1,.88-.1,1.25,1.25,0,0,1,.57.61,1.72,1.72,0,0,1,.19,1.44.89.89,0,0,1-1.23.48" style="fill:#fff;opacity:0.2"></path><path d="M308.65,326.39c-.29.23-.76,0-.86-.39a1.71,1.71,0,0,1,.15-1.08c.06-.14.14-.3.29-.31a.34.34,0,0,1,.23.11,2.78,2.78,0,0,1,.9,1.51" style="fill:#fff;opacity:0.2"></path><path d="M308.52,350.88a22.39,22.39,0,0,1,2.84,1.13c.27.13.58.43.4.67a.44.44,0,0,1-.25.16c-1.14.44-5.81,2.58-6.42.47C304.84,352.42,307.6,350.59,308.52,350.88Z" style="fill:#263238"></path><path d="M281.41,353.32c0-.15-.07-.3-.11-.46.69-.1,1.6-.09,1.83.57a1,1,0,0,1-.75,1.22,3.08,3.08,0,0,1-1.59-.06.83.83,0,0,1,.32-.92" style="fill:#263238"></path><path d="M290.81,312.56c-1.44-.21,1-4.19,2.31-4.51s2.38-1.64,3.82-.19-1.2,5.22-1.2,5.22,8.52,2,7.18,6.44-5.13,3.58-6.41,4.42-3.05,4-5.17,1.66,2.75-12.09,2.75-12.09A31.73,31.73,0,0,0,290.81,312.56Z" style="fill:#263238"></path><path d="M300.23,356.86h18.86c2.11-1.66-.73-4.72-3.66-6.61s-2.84-4-2.84-4,.5-1.63,1.75-2,1.09-1.89-.39-2.31-.72-2-2.13-2.31c-.58-.13-.32,1.11-1.15,1.37s-1.42-1.46-2.22,1.11,2,3.68,2,3.68a43.68,43.68,0,0,0-7.36,3.82C299.57,351.93,298.1,356.11,300.23,356.86Z" style="fill:#263238"></path><path d="M324.31,293.57s4.93-9.25,5.14-9.14a6.86,6.86,0,0,1,.88,1L325.5,294Z" style="fill:#263238"></path><polygon points="298.7 299.8 295.02 294.04 296.72 293.57 300.14 298.69 298.7 299.8" style="fill:#263238"></polygon><path d="M276.64,317.85s-.67-1.94-3.9-1.47-4.23,5.75-1.22,8.23h1.66l.68-2.42s-1-1.52-.34-2.32,2.12.59,2.12.59S277.63,318.92,276.64,317.85Z" style="fill:#263238"></path><path d="M278.42,340.53h-3.56l-5.22,4.72-.46,2.21s1.44-2.55,2.95-2.55,2.28.06,3.06-.91S278.42,340.53,278.42,340.53Z" style="fill:#263238"></path><rect x="326.13" y="331.28" width="16.3" height="24.64" style="fill:#263238"></rect><rect x="326.13" y="331.28" width="16.3" height="24.64" style="fill:#fff;opacity:0.2"></rect><path d="M342.69,330.7H325.81a.59.59,0,1,0,0,1.17h16.88a.59.59,0,0,0,0-1.17Z" style="fill:#263238"></path><path d="M342.69,343.15H325.81a.59.59,0,1,0,0,1.17h16.88a.59.59,0,0,0,0-1.17Z" style="fill:#263238"></path><path d="M342.69,355.6H325.81a.59.59,0,0,0-.59.59.58.58,0,0,0,.59.58h16.88a.58.58,0,0,0,.58-.58A.59.59,0,0,0,342.69,355.6Z" style="fill:#263238"></path><path d="M290.81,312.56c-1.44-.21,1-4.19,2.31-4.51s2.38-1.64,3.82-.19-1.2,5.22-1.2,5.22,8.52,2,7.18,6.44-5.13,3.58-6.41,4.42-3.05,4-5.17,1.66,2.75-12.09,2.75-12.09A31.73,31.73,0,0,0,290.81,312.56Z" style="fill:#fff;opacity:0.1"></path><path d="M324.31,293.57s4.93-9.25,5.14-9.14a6.86,6.86,0,0,1,.88,1L325.5,294Z" style="fill:#fff;opacity:0.1"></path><path d="M329.2,295.54s14.9-13,6.29-20.13-18.94-3.24-10.27,0,14.86-8.3.91-16.24" style="fill:none;stroke:#263238;stroke-linecap:round;stroke-linejoin:round;stroke-width:0.5px;stroke-dasharray:2"></path><rect x="251.51" y="356.52" width="99.73" height="3.6" style="fill:#29FF86"></rect><rect x="251.51" y="356.52" width="99.73" height="3.6" style="fill:#fff;opacity:0.6000000000000001"></rect><polygon points="421.74 368.36 391.96 368.36 390.15 359.9 346.17 359.9 346.17 315.7 354.62 271.42 421.74 271.42 421.74 368.36" style="fill:#29FF86"></polygon><polygon points="421.74 368.36 391.96 368.36 390.15 359.9 346.17 359.9 346.17 315.7 354.62 271.42 421.74 271.42 421.74 368.36" style="fill:#fff;opacity:0.5"></polygon><polygon points="359.7 271.43 351.24 315.69 351.24 359.9 346.17 359.9 346.17 315.69 354.62 271.43 359.7 271.43" style="fill:#fff;opacity:0.2"></polygon><polygon points="421.74 368.36 391.96 368.36 390.15 359.9 351.24 359.9 351.24 315.7 359.69 271.42 421.74 271.42 421.74 368.36" style="fill:#fff;opacity:0.5"></polygon><polygon points="374.7 274.8 359.27 356.52 354.62 356.52 354.62 316.02 362.48 274.8 374.7 274.8" style="fill:#29FF86"></polygon><polygon points="394.38 274.8 378.97 356.52 361.86 356.52 377.27 274.8 394.38 274.8" style="fill:#29FF86"></polygon><polygon points="414.08 274.8 397.07 364.98 394.7 364.98 392.89 356.52 381.55 356.52 396.97 274.8 414.08 274.8" style="fill:#29FF86"></polygon><polygon points="418.36 274.8 418.36 364.98 399.65 364.98 416.66 274.8 418.36 274.8" style="fill:#29FF86"></polygon><g style="opacity:0.4"><polygon points="374.7 274.8 359.27 356.52 354.62 356.52 354.62 316.02 362.48 274.8 374.7 274.8" style="fill:#fff"></polygon><polygon points="394.38 274.8 378.97 356.52 361.86 356.52 377.27 274.8 394.38 274.8" style="fill:#fff"></polygon><polygon points="414.08 274.8 397.07 364.98 394.7 364.98 392.89 356.52 381.55 356.52 396.97 274.8 414.08 274.8" style="fill:#fff"></polygon><polygon points="418.36 274.8 418.36 364.98 399.65 364.98 416.66 274.8 418.36 274.8" style="fill:#fff"></polygon></g><polygon points="373 274.8 357.58 356.52 354.62 356.52 354.62 316.02 362.48 274.8 373 274.8" style="fill:#fff;opacity:0.30000000000000004"></polygon><polygon points="392.7 274.8 377.28 356.52 361.86 356.52 377.27 274.8 392.7 274.8" style="fill:#fff;opacity:0.30000000000000004"></polygon><polygon points="412.39 274.8 395.38 364.98 394.7 364.98 392.89 356.52 381.55 356.52 396.97 274.8 412.39 274.8" style="fill:#fff;opacity:0.30000000000000004"></polygon><polygon points="416.68 274.8 416.68 364.98 399.65 364.98 416.66 274.8 416.68 274.8" style="fill:#fff;opacity:0.30000000000000004"></polygon><rect x="247.93" y="363.42" width="111.76" height="17.48" rx="2.25" style="fill:#29FF86"></rect><rect x="247.93" y="363.42" width="111.76" height="17.48" rx="2.25" style="fill:#fff;opacity:0.6000000000000001"></rect><rect x="349.97" y="363.42" width="9.72" height="17.48" rx="2.25" style="fill:#fff;opacity:0.5"></rect><rect x="338.34" y="366.97" width="6.62" height="10.47" rx="1.44" style="fill:#29FF86"></rect><path d="M345,372.2V376a1.46,1.46,0,0,1-1.45,1.45h-3.73a1.45,1.45,0,0,1-1.45-1.45V372.2Z" style="opacity:0.2"></path><rect x="252.14" y="366.97" width="6.62" height="10.47" rx="1.44" style="fill:#29FF86"></rect><path d="M258.76,372.2V376a1.45,1.45,0,0,1-1.44,1.45h-3.74a1.45,1.45,0,0,1-1.44-1.45V372.2Z" style="opacity:0.2"></path><rect x="277.56" y="366.97" width="39.4" height="12.4" style="opacity:0.2"></rect><path d="M419.37,370.08H396.76c-2.71,0-4.91,2.81-4.91,6.26s2.2,6.26,4.91,6.26h22.61c2.71,0,4.91-2.8,4.91-6.26S422.08,370.08,419.37,370.08Z" style="fill:#29FF86"></path><path d="M424.28,376.34c0,3.45-2.2,6.26-4.92,6.26H396.77a3.27,3.27,0,0,1-.54,0c-2.46-.33-4.38-3-4.38-6.22s1.92-5.89,4.38-6.22a3.27,3.27,0,0,1,.54,0h22.59C422.08,370.08,424.28,372.89,424.28,376.34Z" style="fill:#fff;opacity:0.6000000000000001"></path><path d="M400.62,376.34c0,3.23-1.92,5.88-4.39,6.22-2.46-.33-4.38-3-4.38-6.22s1.92-5.89,4.38-6.22C398.7,370.46,400.62,373.11,400.62,376.34Z" style="opacity:0.2"></path></g><g id="freepik--Bulldozer--inject-6"><path d="M106.46,349.18h-2.15L102,352.86h3a1.46,1.46,0,0,1,1.46,1.47V369.1h3.68V352.86h0a3.68,3.68,0,0,0-3.68-3.68Z" style="fill:#263238"></path><path d="M106.46,349.18h-2.15L102,352.86h3a1.46,1.46,0,0,1,1.46,1.47V369.1h3.68V352.86h0a3.68,3.68,0,0,0-3.68-3.68Z" style="fill:#fff;opacity:0.5"></path><path d="M225.36,398.66a1.29,1.29,0,0,1-.76.24,1.06,1.06,0,0,1-.35,0,1.65,1.65,0,0,1-1.06-1l-7.93-17.23h-16v-6.15H216.7a2.13,2.13,0,0,1,1.91,1.51l7.44,20A2.26,2.26,0,0,1,225.36,398.66Z" style="fill:#263238"></path><path d="M225.36,398.66a1.29,1.29,0,0,1-.76.24,1.06,1.06,0,0,1-.35,0,1.65,1.65,0,0,1-1.06-1l-7.93-17.23h-16v-6.15H216.7a2.13,2.13,0,0,1,1.91,1.51l7.44,20A2.26,2.26,0,0,1,225.36,398.66Z" style="fill:#fff;opacity:0.5"></path><path d="M201.58,377.33c0,2.69-1.45,4.86-3.23,4.86s-3.23-2.17-3.23-4.86,1.45-4.86,3.23-4.86S201.58,374.65,201.58,377.33Z" style="fill:#263238"></path><path d="M201.57,377.33c0,2.69-1.44,4.87-3.22,4.87a1.34,1.34,0,0,1-.35,0c-1.62-.26-2.88-2.31-2.88-4.83s1.26-4.56,2.88-4.82a1.34,1.34,0,0,1,.35,0C200.13,372.47,201.57,374.65,201.57,377.33Z" style="fill:#fff;opacity:0.5"></path><path d="M225.35,396.05l-7.45-20a2.11,2.11,0,0,0-1.9-1.51H200.27a3.25,3.25,0,0,0-2.27-2c-1.62.26-2.88,2.31-2.88,4.82s1.26,4.57,2.88,4.83a3,3,0,0,0,2-1.5h15.26l7.93,17.23a1.65,1.65,0,0,0,1.06,1,1.38,1.38,0,0,0,.41-.19A2.26,2.26,0,0,0,225.35,396.05Z" style="fill:#fff;opacity:0.30000000000000004"></path><path d="M224.91,396.93c0,.62-.33,1.11-.74,1.11s-.74-.49-.74-1.11.33-1.11.74-1.11S224.91,396.32,224.91,396.93Z" style="opacity:0.2"></path><path d="M199.58,377.25c0,1.51-.82,2.74-1.83,2.74s-1.83-1.23-1.83-2.74.82-2.74,1.83-2.74S199.58,375.73,199.58,377.25Z" style="opacity:0.2"></path><path d="M197,370.86h1.24c2.69,0,4.87,2.87,4.87,6.4s-2.18,6.39-4.87,6.39H197c-2.69,0-4.87-2.86-4.87-6.39S194.31,370.86,197,370.86Z" style="fill:#263238"></path><path d="M196.24,371.32c2.24,0,4.07,2.66,4.07,5.94s-1.83,5.94-4.07,5.94-4.08-2.66-4.08-5.94S194,371.32,196.24,371.32Z" style="fill:#fff;opacity:0.2"></path><path d="M208.07,369.9v14.32h-24.4l2-14.32A2.39,2.39,0,0,1,188,368h18A2,2,0,0,1,208.07,369.9Z" style="fill:#29FF86"></path><path d="M208.07,369.9v14.32h-8.56V369.9a1.9,1.9,0,0,0-2-1.94H206A2,2,0,0,1,208.07,369.9Z" style="opacity:0.30000000000000004"></path><path d="M138.32,384.22h6c6.67,0,12.08,7.48,12.08,16.7s-5.41,16.7-12.08,16.7h-6c-6.67,0-12.08-7.48-12.08-16.7S131.65,384.22,138.32,384.22Z"></path><path d="M136.43,385.4c5.58,0,10.1,7,10.1,15.52s-4.52,15.51-10.1,15.51-10.09-6.94-10.09-15.51S130.86,385.4,136.43,385.4Z" style="fill:#fff;opacity:0.1"></path><path d="M135.56,392.53c3,0,5.45,3.76,5.45,8.39s-2.44,8.38-5.45,8.38-5.46-3.75-5.46-8.38S132.54,392.53,135.56,392.53Z" style="fill:#263238;opacity:0.6000000000000001"></path><path d="M185,388.33h5.27c5.85,0,10.6,6.55,10.6,14.64s-4.75,14.65-10.6,14.65H185c-5.85,0-10.6-6.56-10.6-14.65S179.16,388.33,185,388.33Z"></path><path d="M183.35,389.37c4.89,0,8.86,6.09,8.86,13.6s-4,13.61-8.86,13.61-8.85-6.09-8.85-13.61S178.46,389.37,183.35,389.37Z" style="fill:#fff;opacity:0.1"></path><path d="M182.59,395.62c2.64,0,4.78,3.29,4.78,7.35s-2.14,7.36-4.78,7.36S177.8,407,177.8,403,179.94,395.62,182.59,395.62Z" style="fill:#263238;opacity:0.6000000000000001"></path><path d="M160.34,410.33h23a4.12,4.12,0,0,0,4-3.14l1.54-6.27H160.34Z" style="fill:#263238"></path><rect x="101.65" y="380.08" width="85.77" height="23.16" style="fill:#263238"></rect><rect x="124.04" y="367.96" width="23.82" height="43.52" style="fill:#29FF86"></rect><path d="M174.22,368.92H121.51l2.79-29.42a3.48,3.48,0,0,1,3.58-3h35.74a3.54,3.54,0,0,1,3.52,2.56Z" style="fill:#29FF86"></path><path d="M174.22,368.92h-27.8l-2.73-29.81a3,3,0,0,0-3.14-2.58h23.07a3.54,3.54,0,0,1,3.52,2.56Z" style="opacity:0.2"></path><polygon points="147.87 365.76 145.33 339.96 165.71 339.96 172.14 365.76 147.87 365.76" style="fill:#263238"></polygon><polygon points="141.83 339.96 144.03 367.96 136.51 367.96 133.19 362.74 124.05 362.74 125.97 339.96 141.83 339.96" style="fill:#263238"></polygon><polygon points="154.42 341.4 162.15 356.15 159.07 343.68 167.25 364.05 170.76 364.05 164.75 341.4 154.42 341.4" style="fill:#fff;opacity:0.4"></polygon><path d="M204.46,368.66v33.48a3.41,3.41,0,0,1-3.4,3.41H179.21a4,4,0,0,1-3.93-3.18l-3.93-18.15H158.77V368.66a3.4,3.4,0,0,1,3.4-3.4h38.89A3.41,3.41,0,0,1,204.46,368.66Z" style="fill:#29FF86"></path><rect x="181.84" y="365.26" width="22.61" height="40.28" rx="4.42" style="opacity:0.2"></rect><rect x="177.05" y="376.4" width="35.67" height="18" rx="3" transform="translate(580.29 190.52) rotate(90)" style="fill:#263238"></rect><rect x="177.05" y="376.4" width="35.67" height="18" rx="3" transform="translate(580.29 190.52) rotate(90)" style="fill:#fff;opacity:0.5"></rect><rect x="178.59" y="377.94" width="32.6" height="14.93" rx="1" transform="translate(580.29 190.52) rotate(90)" style="fill:#263238"></rect><rect x="194.23" y="369.98" width="1.32" height="30.93" style="fill:#fff;opacity:0.5"></rect><rect x="187.87" y="370.74" width="6.09" height="1.22" style="fill:#fff;opacity:0.5"></rect><rect x="195.81" y="370.74" width="6.09" height="1.22" style="fill:#fff;opacity:0.5"></rect><rect x="187.87" y="373.08" width="6.09" height="1.22" style="fill:#fff;opacity:0.5"></rect><rect x="195.81" y="373.08" width="6.09" height="1.22" style="fill:#fff;opacity:0.5"></rect><rect x="187.87" y="375.41" width="6.09" height="1.22" style="fill:#fff;opacity:0.5"></rect><rect x="195.81" y="375.41" width="6.09" height="1.22" style="fill:#fff;opacity:0.5"></rect><rect x="187.87" y="377.74" width="6.09" height="1.22" style="fill:#fff;opacity:0.5"></rect><rect x="195.81" y="377.74" width="6.09" height="1.22" style="fill:#fff;opacity:0.5"></rect><rect x="187.87" y="380.08" width="6.09" height="1.22" style="fill:#fff;opacity:0.5"></rect><rect x="195.81" y="380.08" width="6.09" height="1.22" style="fill:#fff;opacity:0.5"></rect><rect x="187.87" y="382.41" width="6.09" height="1.22" style="fill:#fff;opacity:0.5"></rect><rect x="195.81" y="382.41" width="6.09" height="1.22" style="fill:#fff;opacity:0.5"></rect><rect x="187.87" y="384.74" width="6.09" height="1.22" style="fill:#fff;opacity:0.5"></rect><rect x="195.81" y="384.74" width="6.09" height="1.22" style="fill:#fff;opacity:0.5"></rect><rect x="187.87" y="387.07" width="6.09" height="1.22" style="fill:#fff;opacity:0.5"></rect><rect x="195.81" y="387.07" width="6.09" height="1.22" style="fill:#fff;opacity:0.5"></rect><rect x="187.87" y="389.41" width="6.09" height="1.22" style="fill:#fff;opacity:0.5"></rect><rect x="195.81" y="389.41" width="6.09" height="1.22" style="fill:#fff;opacity:0.5"></rect><rect x="187.87" y="391.74" width="6.09" height="1.22" style="fill:#fff;opacity:0.5"></rect><rect x="195.81" y="391.74" width="6.09" height="1.22" style="fill:#fff;opacity:0.5"></rect><rect x="187.87" y="394.07" width="6.09" height="1.22" style="fill:#fff;opacity:0.5"></rect><rect x="195.81" y="394.07" width="6.09" height="1.22" style="fill:#fff;opacity:0.5"></rect><rect x="187.87" y="396.41" width="6.09" height="1.22" style="fill:#fff;opacity:0.5"></rect><rect x="195.81" y="396.41" width="6.09" height="1.22" style="fill:#fff;opacity:0.5"></rect><rect x="187.87" y="398.74" width="6.09" height="1.22" style="fill:#fff;opacity:0.5"></rect><rect x="195.81" y="398.74" width="6.09" height="1.22" style="fill:#fff;opacity:0.5"></rect><path d="M169.61,369.9v14.32H145.22l2-14.32a2.39,2.39,0,0,1,2.35-1.94h18A2,2,0,0,1,169.61,369.9Z" style="fill:#29FF86"></path><path d="M169.61,369.9v14.32h-8.56V369.9a1.9,1.9,0,0,0-2-1.94h8.46A2,2,0,0,1,169.61,369.9Z" style="opacity:0.2"></path><path d="M123.79,368.34l2.48,14.34H96.72V368.34a2,2,0,0,1,2.08-1.92h22.59A2.46,2.46,0,0,1,123.79,368.34Z" style="fill:#29FF86"></path><path d="M123.79,368.34l2.48,14.34h-8.71L116,368.34a2.29,2.29,0,0,0-2.29-1.92h7.7A2.46,2.46,0,0,1,123.79,368.34Z" style="opacity:0.2"></path><polygon points="188.37 381.08 233.22 381.08 240.82 417.62 194.08 417.62 188.37 381.08" style="fill:#29FF86"></polygon><polygon points="188.37 381.08 233.22 381.08 240.82 417.62 194.08 417.62 188.37 381.08" style="opacity:0.2"></polygon><path d="M228.36,381.08l5.71,36.54h33.51s-22.06-7.19-25.26-36.54Z" style="fill:#29FF86"></path><path d="M267.59,417.62H266s-22.05-7.19-25.26-36.53h1.54C245.52,410.43,267.59,417.62,267.59,417.62Z" style="fill:#fff;opacity:0.2"></path><polygon points="242.91 381.08 196.99 381.08 196.99 382.9 242.14 382.9 242.91 381.08" style="fill:#29FF86"></polygon><polygon points="242.91 381.08 196.99 381.08 196.99 382.9 242.14 382.9 242.91 381.08" style="fill:#fff;opacity:0.2"></polygon><polygon points="267.41 415.8 223.03 415.8 223.03 417.62 268.95 417.62 267.41 415.8" style="fill:#29FF86"></polygon><polygon points="267.41 415.8 223.03 415.8 223.03 417.62 268.95 417.62 267.41 415.8" style="fill:#fff;opacity:0.2"></polygon><path d="M232.76,406.23c4.6-2.69,6.35-4.44,1.66-10.45s-4.33-6.47.21-8.71,3.68-8-1.43-11.62c0,0,5.4,1.72,5.92,6.54s-4.32,3.77-4.49,7.42,6.9,10.58,7.25,14.64-3.9,6.18-3.9,6.18Z" style="fill:#263238"></path><path d="M232.76,406.23c4.6-2.69,6.35-4.44,1.66-10.45s-4.33-6.47.21-8.71,3.68-8-1.43-11.62c0,0,5.4,1.72,5.92,6.54s-4.32,3.77-4.49,7.42,6.9,10.58,7.25,14.64-3.9,6.18-3.9,6.18Z" style="fill:#fff;opacity:0.9"></path><path d="M255.82,415.8h-49.5s-1.82-6.44.72-9.15,6.88-.08,8.11-1.6c1.36-1.7,1.86-2.15,3.55-1.23.7.37.91.89,1.85.64s1.15-1.47,2.07-1.38c.24,0,.5.14.68,0s0-.58.08-.89c0,0,1.15-2.32,1.15-2.45h0c.55-.5.49-.3,1.37.13a11.34,11.34,0,0,1,2.6,1.88c.59.53,1.13,1.08,1.6,1.59,0,0,4.53.41,4.84.82s1.41,2.57,1.92,2.5a15.87,15.87,0,0,1,3.92.74c.24.2,2.47,1.82,2.78,2a4.81,4.81,0,0,0,1.82.92c.91.2,1,.06,1.72.53s1.62.07,2.34.68a2.83,2.83,0,0,0,2.36,1.12C253.19,412.66,255.82,415.8,255.82,415.8Z" style="fill:#263238"></path><path d="M255.82,415.8h-49.5s-1.82-6.44.72-9.15,6.88-.08,8.11-1.6c1.36-1.7,1.86-2.15,3.55-1.23.7.37.91.89,1.85.64s1.15-1.47,2.07-1.38c.24,0,.5.14.68,0s0-.58.08-.89c0,0,1.15-2.32,1.15-2.45h0c.55-.5.49-.3,1.37.13a11.34,11.34,0,0,1,2.6,1.88c.59.53,1.13,1.08,1.6,1.59,0,0,4.53.41,4.84.82s1.41,2.57,1.92,2.5a15.87,15.87,0,0,1,3.92.74c.24.2,2.47,1.82,2.78,2a4.81,4.81,0,0,0,1.82.92c.91.2,1,.06,1.72.53s1.62.07,2.34.68a2.83,2.83,0,0,0,2.36,1.12C253.19,412.66,255.82,415.8,255.82,415.8Z" style="fill:#fff;opacity:0.4"></path><path d="M243.53,415.8H210.79l-.41-.42a7.09,7.09,0,0,1-1.12-1.46c-2-3.9,4.6-8.32,7.85-6.29.76.48,1.23,1.32,2,1.8a8.15,8.15,0,0,0,2.84.73,3.66,3.66,0,0,1,1.77.79c-.67-1-1.34-2.06-2-3.09,1.87,1.19,4.28-.91,6.47-.54s3.28,2.86,5.32,3.57a11.13,11.13,0,0,0,3,.31A9,9,0,0,1,243.53,415.8Z" style="fill:#fff;opacity:0.1"></path><path d="M219,405.54s.71-3.84.94-3.83,3.3,1.51,2.67,1.37S223,405,223,405l-2.5,1.37Z" style="fill:#263238"></path><polygon points="236.4 408.39 239.07 402.22 240.78 403.33 237.98 410.23 236.4 409.53 236.4 408.39" style="fill:#263238"></polygon><path d="M228,405.18c-.22-.44-.37-1.1.07-1.3a.88.88,0,0,1,.4-.05l1.47,0c.38.33.77,1.49.42,1.86a1.21,1.21,0,0,1-1.4.2c-.27-.13-.48-.35-.75-.47S228.15,404.94,228,405.18Z" style="fill:#fff;opacity:0.2"></path><path d="M225.2,413.38a2.75,2.75,0,0,1-1.46-.81,1.07,1.07,0,0,1,.11-1.5,1.12,1.12,0,0,1,.67-.15,1.65,1.65,0,0,1,1.49.91,1.08,1.08,0,0,1-.67,1.46" style="fill:#fff;opacity:0.2"></path><path d="M244.67,412.33c-.08-.26.36-.33.62-.23a7.26,7.26,0,0,1,2.05,1.23c.11.1.23.25.16.38a.32.32,0,0,1-.21.12l-.74.22a2.08,2.08,0,0,1-1.49.07c-.46-.21-.65-1-.21-1.21" style="fill:#fff;opacity:0.2"></path><path d="M188.37,381.08l5.71,36.54h33.51s-22.06-7.19-25.26-36.54Z" style="fill:#29FF86"></path><path d="M227.59,417.62H226s-22-7.19-25.25-36.53h1.53C205.53,410.43,227.59,417.62,227.59,417.62Z" style="fill:#fff;opacity:0.2"></path><path d="M174.69,370.86h1.25c2.69,0,4.87,2.87,4.87,6.4s-2.18,6.39-4.87,6.39h-1.25c-2.69,0-4.87-2.86-4.87-6.39S172,370.86,174.69,370.86Z" style="fill:#263238"></path><path d="M173.93,371.32c2.25,0,4.07,2.66,4.07,5.94s-1.82,5.94-4.07,5.94-4.07-2.66-4.07-5.94S171.68,371.32,173.93,371.32Z" style="fill:#fff;opacity:0.2"></path><path d="M200.75,398.66a1.31,1.31,0,0,1-.76.24,1,1,0,0,1-.35,0,1.63,1.63,0,0,1-1.06-1l-7.93-17.23H174.6v-6.15h17.49A2.11,2.11,0,0,1,194,376l7.45,20A2.28,2.28,0,0,1,200.75,398.66Z" style="fill:#263238"></path><path d="M200.75,398.66a1.31,1.31,0,0,1-.76.24,1,1,0,0,1-.35,0,1.63,1.63,0,0,1-1.06-1l-7.93-17.23H174.6v-6.15h17.49A2.11,2.11,0,0,1,194,376l7.45,20A2.28,2.28,0,0,1,200.75,398.66Z" style="fill:#fff;opacity:0.5"></path><path d="M177,377.33c0,2.69-1.44,4.86-3.22,4.86s-3.23-2.17-3.23-4.86,1.44-4.86,3.23-4.86S177,374.65,177,377.33Z" style="fill:#263238"></path><path d="M177,377.33c0,2.69-1.44,4.87-3.22,4.87a1.34,1.34,0,0,1-.35,0c-1.62-.26-2.88-2.31-2.88-4.83s1.26-4.56,2.88-4.82a1.34,1.34,0,0,1,.35,0C175.52,372.47,177,374.65,177,377.33Z" style="fill:#fff;opacity:0.5"></path><path d="M200.74,396.05l-7.45-20a2.12,2.12,0,0,0-1.9-1.51H175.66a3.27,3.27,0,0,0-2.27-2c-1.62.26-2.88,2.31-2.88,4.82s1.26,4.57,2.88,4.83a3,3,0,0,0,2-1.5h15.27l7.93,17.23a1.63,1.63,0,0,0,1.06,1,1.38,1.38,0,0,0,.41-.19A2.29,2.29,0,0,0,200.74,396.05Z" style="fill:#fff;opacity:0.30000000000000004"></path><path d="M200.3,396.93c0,.62-.33,1.11-.74,1.11s-.74-.49-.74-1.11.33-1.11.74-1.11S200.3,396.32,200.3,396.93Z" style="opacity:0.2"></path><path d="M175,377.25c0,1.51-.82,2.74-1.83,2.74s-1.83-1.23-1.83-2.74.82-2.74,1.83-2.74S175,375.73,175,377.25Z" style="opacity:0.2"></path><path d="M107.15,384.22h6c6.67,0,12.08,7.48,12.08,16.7s-5.41,16.7-12.08,16.7h-6c-6.68,0-12.09-7.48-12.09-16.7S100.47,384.22,107.15,384.22Z"></path><path d="M105.25,385.4c5.58,0,10.1,7,10.1,15.52s-4.52,15.51-10.1,15.51-10.09-6.94-10.09-15.51S99.68,385.4,105.25,385.4Z" style="fill:#fff;opacity:0.2"></path><path d="M104.38,392.53c3,0,5.46,3.76,5.46,8.39s-2.45,8.38-5.46,8.38-5.46-3.75-5.46-8.38S101.37,392.53,104.38,392.53Z" style="fill:#fff;opacity:0.2"></path><path d="M106.46,396.73c1.44,0,2.6,1.79,2.6,4s-1.16,4-2.6,4-2.6-1.79-2.6-4S105,396.73,106.46,396.73Z" style="fill:#263238"></path><path d="M126.07,380.76H98.26a1.16,1.16,0,0,0,0,2.31h19.07l2.49,27.36a1.15,1.15,0,0,0,1.15,1.05h.1s7.69,0,7.59,0h.1a1.15,1.15,0,0,0,1.05-1.25l-2.59-28.41A1.15,1.15,0,0,0,126.07,380.76Z" style="fill:#29FF86"></path><path d="M126.07,380.76H98.26a1.16,1.16,0,0,0,0,2.31h19.07l2.49,27.36a1.15,1.15,0,0,0,1.15,1.05h.1s7.69,0,7.59,0h.1a1.15,1.15,0,0,0,1.05-1.25l-2.59-28.41A1.15,1.15,0,0,0,126.07,380.76Z" style="opacity:0.2"></path><path d="M170.19,383.07H143.92a1.16,1.16,0,0,0-1.15,1l-2.58,26.1a1.14,1.14,0,0,0,1,1.26h.12s6.15,0,6,0h.12a1.15,1.15,0,0,0,1.14-1l2.49-25.07h19.07a1.15,1.15,0,0,0,0-2.3Z" style="fill:#29FF86"></path><path d="M170.19,383.07H143.92a1.16,1.16,0,0,0-1.15,1l-2.58,26.1a1.14,1.14,0,0,0,1,1.26h.12s6.15,0,6,0h.12a1.15,1.15,0,0,0,1.14-1l2.49-25.07h19.07a1.15,1.15,0,0,0,0-2.3Z" style="opacity:0.2"></path><path d="M121,411.48a1.15,1.15,0,0,1-1.15-1.05l-2.49-27.36H98.26a1.16,1.16,0,0,1,0-2.31h20.12a1.15,1.15,0,0,1,1.15,1.05l2.58,28.41a1.13,1.13,0,0,1-1,1.25Z" style="fill:#29FF86"></path><path d="M141.34,411.48h-.12a1.14,1.14,0,0,1-1-1.26l2.58-26.1a1.16,1.16,0,0,1,1.15-1H164a1.15,1.15,0,0,1,0,2.3H145l-2.48,25.07A1.16,1.16,0,0,1,141.34,411.48Z" style="fill:#29FF86"></path><path d="M156.08,388.33h5.26c5.85,0,10.6,6.55,10.6,14.64s-4.75,14.65-10.6,14.65h-5.26c-5.86,0-10.6-6.56-10.6-14.65S150.22,388.33,156.08,388.33Z"></path><path d="M154.42,389.37c4.89,0,8.85,6.09,8.85,13.6s-4,13.61-8.85,13.61-8.86-6.09-8.86-13.61S149.53,389.37,154.42,389.37Z" style="fill:#fff;opacity:0.2"></path><path d="M153.65,395.62c2.64,0,4.78,3.29,4.78,7.35s-2.14,7.36-4.78,7.36-4.79-3.3-4.79-7.36S151,395.62,153.65,395.62Z" style="fill:#fff;opacity:0.2"></path><path d="M155.45,399.3c1.32,0,2.4,1.64,2.4,3.67s-1.08,3.68-2.4,3.68-2.39-1.65-2.39-3.68S154.13,399.3,155.45,399.3Z" style="fill:#263238"></path><g style="opacity:0.2"><path d="M121,411.48a1.15,1.15,0,0,1-1.15-1.05l-2.49-27.36H98.26a1.16,1.16,0,0,1,0-2.31h20.12a1.15,1.15,0,0,1,1.15,1.05l2.58,28.41a1.13,1.13,0,0,1-1,1.25Z" style="fill:#fff"></path></g><g style="opacity:0.2"><path d="M141.34,411.48h-.12a1.14,1.14,0,0,1-1-1.26l2.58-26.1a1.16,1.16,0,0,1,1.15-1H164a1.15,1.15,0,0,1,0,2.3H145l-2.48,25.07A1.16,1.16,0,0,1,141.34,411.48Z" style="fill:#fff"></path></g></g><g id="freepik--garbage-pile-1--inject-6"><path d="M281.65,417.62h64.57s.18-.21-2.77-1.89-2.66-3.39-5.15-4.5-3.11-3.4-4-3.77-2.8-4.71-2.8-4.71c-1.38-.41-2.52.82-4.69-1.7L322,395.54l-2.19-1.16c-1.78.05-4.1-.36-4.85,0s-1.15,1.48-3.14,1.71.19-1.35-2,.24-.8,1.73-3.41,1.81.12-.23-2.61.09l-2.74.31h0c-2.26.87-.86-2.55-4.94,1.7s-6.67,2-7.85,4.89-5.05,2.33-5.05,2.33l-2,2.57c-1.46,4.65.73,4.33-1.46,4.65l-2.19.32-3.88,2.62Z" style="fill:#263238"></path><path d="M281.65,417.62h64.57s.18-.21-2.77-1.89-2.66-3.39-5.15-4.5-3.11-3.4-4-3.77-2.8-4.71-2.8-4.71c-1.38-.41-2.52.82-4.69-1.7L322,395.54l-2.19-1.16c-1.78.05-4.1-.36-4.85,0s-1.15,1.48-3.14,1.71.19-1.35-2,.24-.8,1.73-3.41,1.81.12-.23-2.61.09l-2.74.31h0c-2.26.87-.86-2.55-4.94,1.7s-6.67,2-7.85,4.89-5.05,2.33-5.05,2.33l-2,2.57c-1.46,4.65.73,4.33-1.46,4.65l-2.19.32-3.88,2.62Z" style="fill:#fff;opacity:0.4"></path><path d="M281.65,417.62s-.24-.06,2-1.89,1.36-2.31,3.14-2.16,2.41-.21,4.28,0,3.32.33,4.1-.06,1.74-1.5,2.43-1.5h1.37s-1.51-.32.68,0a12.57,12.57,0,0,1,2.87.63l2.38,1.27c2,.47,3.36.85,3.36.85s-2.62-3.19-3.36-2.89-1.16-.81-1.77,0-1.84-1.9-1.84-1.9,5.08-1.15,5.21-2.47-.38-3.06.69-3.54,4.29-1,4.53-1.6,2.3-2.08,2.3-2.08l4.19,1.35a11,11,0,0,0,1.68.73c1,.34,1.78-.14,2.46.49S324,404,324,404.49a13.57,13.57,0,0,0,1.07,2.72s.61-1.23-2.08.83-2.28.15-2.69,2a15.88,15.88,0,0,0-.41,3l1.52-2.22a1.65,1.65,0,0,0,1.58-.31l.87-.64a6.9,6.9,0,0,0,2.44-1c.57-.58,2.13,0,2.13,0s.33-.84,1,0,4.19,2.11,4.19,2.11L335,412a15.75,15.75,0,0,0,2.6,2.37,15.89,15.89,0,0,0,2.46.16l2.15,3.1Z" style="fill:#fff;opacity:0.1"></path><path d="M292.2,407.2a2,2,0,0,0-.18,1.57l.33.43h2a2.43,2.43,0,0,0-.46-2A1.08,1.08,0,0,0,292.2,407.2Z" style="fill:#fff;opacity:0.2"></path><path d="M300.82,402.56h0l0,0Z" style="fill:#fff;opacity:0.2"></path><path d="M300.66,401.21a2.54,2.54,0,0,0,.16,1.34l1.07-.74c.23-.17.51-.46.39-.75Z" style="fill:#fff;opacity:0.2"></path><path d="M316.7,412.78l-.48-.24c-.19.25-.52.28-.79.38s-.57.39-.47.71c0-.08-.25.38-.23.44a1.81,1.81,0,0,0,1.62.93,1.17,1.17,0,0,0,1-.56C317.53,414.07,317,412.94,316.7,412.78Z" style="fill:#fff;opacity:0.2"></path><path d="M328.35,405.94a1.31,1.31,0,0,0-2-.86.74.74,0,0,0-.24.31c-.12.34.09.78-.1,1.08l-.26.37A1.55,1.55,0,0,0,328,407a1,1,0,0,0,.31-.5A1.14,1.14,0,0,0,328.35,405.94Z" style="fill:#fff;opacity:0.2"></path><path d="M316.18,399.38a.75.75,0,0,0,.22-.91,1.15,1.15,0,0,0-.38-.38c-.34-.25-.76-.51-1.12-.3s-.43.87-.39,1.39l.89-.08A.56.56,0,0,0,316.18,399.38Z" style="fill:#fff;opacity:0.2"></path><path d="M289.48,415a.7.7,0,0,0-.48.84l.25.11a3.46,3.46,0,0,0,.85,0c.16,0,.35-.1.36-.28a.43.43,0,0,0-.1-.24A.89.89,0,0,0,289.48,415Z" style="fill:#fff;opacity:0.2"></path><path d="M335.2,398.58c1.24-1.33.73.2,1.74.87s2-1.1,1.91.79-.44,2.63,0,2.94,0,1.59-2.28.64a5.23,5.23,0,0,0,0,3c.54,1,6,3.64,5.65,7s-6,1.6-7,1.2-2.1,2.12-5.11.49-3.33-2.57-1.71-6.53,5.9-6.18,5.9-6.18S334.38,399.47,335.2,398.58Z" style="fill:#263238"></path><path d="M307.14,408.64a6.71,6.71,0,0,0-3.12-1.18c-1.55-.06-2.55,0-2.55,0l.84-1.32a8.39,8.39,0,0,1,4.16.66,4.65,4.65,0,0,1,2.31,2.13l-1,1Z" style="fill:#263238"></path><path d="M288.74,412.54s-.86-3.13-1.68-3.34-2.64,1.67-2.64,1.67l1.18,2.23S287.4,411.6,288.74,412.54Z" style="fill:#263238"></path><path d="M296.16,404.69s-.39-1.68,0-2.12a4.91,4.91,0,0,1,1.84-.76l1.1,1.44-.18,1.6A2.45,2.45,0,0,0,296.16,404.69Z" style="fill:#263238"></path><path d="M316.88,403s.29-2.83,1.28-2.73,2.55.5,2.36.82-.65,3.43-.65,3.43Z" style="fill:#263238"></path><path d="M304.48,416s-.77-2.08,1-2.25,2,.06,2.37.51a15.22,15.22,0,0,0,1.72,1.45v.79Z" style="fill:#263238"></path><path d="M335.2,398.58c1.24-1.33.73.2,1.74.87s2-1.1,1.91.79-.44,2.63,0,2.94,0,1.59-2.28.64a5.23,5.23,0,0,0,0,3c.54,1,6,3.64,5.65,7s-6,1.6-7,1.2-2.1,2.12-5.11.49-3.33-2.57-1.71-6.53,5.9-6.18,5.9-6.18S334.38,399.47,335.2,398.58Z" style="fill:#fff;opacity:0.1"></path><path d="M288.74,412.54s-.86-3.13-1.68-3.34-2.64,1.67-2.64,1.67l1.18,2.23S287.4,411.6,288.74,412.54Z" style="fill:#fff;opacity:0.1"></path><path d="M316.88,403s.29-2.83,1.28-2.73,2.55.5,2.36.82-.65,3.43-.65,3.43Z" style="fill:#fff;opacity:0.1"></path><path d="M318.31,395.67s-19.11-2.06-16-9.13,14.82-2.18,11.72-.42-15.85-2.39-10.54-7.25c3.94-3.6,6.1-2.69,6.1-2.69" style="fill:none;stroke:#263238;stroke-linecap:round;stroke-linejoin:round;stroke-width:0.5px;stroke-dasharray:2"></path></g></svg>
